<?xml version="1.0" encoding="utf-8"?>
<!-- Generator: Adobe Illustrator 18.0.0, SVG Export Plug-In . SVG Version: 6.00 Build 0)  -->
<!DOCTYPE svg PUBLIC "-//W3C//DTD SVG 1.1//EN" "http://www.w3.org/Graphics/SVG/1.1/DTD/svg11.dtd">
<svg version="1.1" id="Layer_1" xmlns="http://www.w3.org/2000/svg" xmlns:xlink="http://www.w3.org/1999/xlink" x="0px" y="0px"
	 viewBox="0 0 92.2 81.7" enable-background="new 0 0 92.2 81.7" xml:space="preserve">
<g>
	<g>
		
			<path fill="#075C2F" stroke="#075C2F" stroke-width="3.2119" stroke-linecap="round" stroke-linejoin="round" stroke-miterlimit="10" d="
			M47.8,61.8c-6.3,0-12.7,0-19,0c-0.9,0-1.5,0.2-2.1,0.9c-5.2,5.3-10.5,10.5-15.7,15.8c-1.4,1.5-3,2.1-5,1.4
			c-1.8-0.7-2.6-2.2-2.6-4.5c0-4.2,0-8.5,0-12.7c0-1.6,0.5-2.8,1.6-4c5.8-5.8,11.7-11.6,17.5-17.5c1.1-1.1,2.3-1.7,3.8-1.7
			c10.8,0,21.6,0,32.4,0c4,0,5.6,3.9,3.9,6.5c-1,1.5-2.5,2-4.2,2c-4.1,0-8.2,0-12.3,0c-0.9,0-1.5,0-1.5,1.2c0,1.1,0.6,1.3,1.5,1.3
			c7.2,0,14.4,0,21.6,0c0.5,0,1.2-0.3,1.6-0.7c4.6-4.5,9.1-9.1,13.7-13.6c0.8-0.8,1.9-1.4,3-1.7c1.7-0.4,3.4,0.5,4.2,2
			c0.9,1.5,0.7,3.3-0.4,4.7c-0.2,0.3-0.5,0.5-0.7,0.8C82.8,48,76.8,54,70.7,60.1c-1.2,1.2-2.5,1.7-4.1,1.7
			C60.3,61.8,54.1,61.8,47.8,61.8z"/>
		
			<path fill="#075C2F" stroke="#075C2F" stroke-width="3.2119" stroke-linecap="round" stroke-linejoin="round" stroke-miterlimit="10" d="
			M65.3,37.6c-2.8-3.2-6.5-2.8-10.2-2.7c0-0.1,0-0.2,0-0.3c0.4-0.1,0.8-0.2,1.2-0.4c4.5-1.3,6.6-6,4.5-9.9c-0.8-1.5-2.1-2.4-3.5-3.1
			c-1.3-0.6-2.6-1.1-3.9-1.7c-0.6-0.3-1.1-0.6-1.6-0.9c-0.9-0.6-1.4-1.4-1.3-2.6c0.2-1.2,1-1.8,2.1-2.1c2-0.5,3.9-0.1,5.8,0.6
			c0.4,0.1,0.7,0.3,1.2,0.5c0.4-1.2,0.7-2.3,1.1-3.7c-1.4-0.4-2.8-0.8-4.3-1c-1-0.1-1.3-0.4-1.3-1.4c0.1-0.7,0-1.5,0-2.3
			c-1.1,0-2,0-3.2,0c0,0.9-0.1,1.7,0,2.6c0.1,0.9-0.2,1.3-1.1,1.5c-3.7,1-5.6,3.7-5.2,7.2c0.2,1.5,0.8,2.8,2,3.7
			c1.3,0.9,2.7,1.6,4.1,2.3c1.1,0.6,2.2,1,3.2,1.6c1.2,0.7,1.9,1.8,1.5,3.2c-0.3,1.4-1.4,2.1-2.7,2.4c-2.1,0.4-4.1,0-6-0.8
			c-0.5-0.2-0.9-0.4-1.5-0.7c-0.3,1.1-0.7,2.1-0.9,3.2c0,0.2,0.4,0.8,0.7,0.9c1.5,0.5,3.1,1,4.5,1.4c-2.6,0-5.4,0-8.1,0
			c-0.2,0-0.5,0-0.7,0c-2.8,0.6-4.1-1-5.3-3.2C30.1,19.3,37.8,4.8,51.7,3.3C62,2.2,71.5,10,72.6,20.3C73.3,27.1,70.5,33.8,65.3,37.6
			z"/>
	</g>
	
		<rect x="38" y="10.2" fill="#075C2F" stroke="#075C2F" stroke-width="3.3884" stroke-linecap="round" stroke-linejoin="round" stroke-miterlimit="10" width="26" height="23.2"/>
	<g>
		<path fill="#DBE0E5" d="M44.6,58.6c-6.3,0-12.7,0-19,0c-0.9,0-1.5,0.2-2.1,0.9c-5.2,5.3-10.5,10.5-15.7,15.8c-1.4,1.5-3,2.1-5,1.4
			C0.9,75.9,0,74.4,0,72.1c0-4.2,0-8.5,0-12.7c0-1.6,0.5-2.8,1.6-4c5.8-5.8,11.7-11.6,17.5-17.5c1.1-1.1,2.3-1.7,3.8-1.7
			c10.8,0,21.6,0,32.4,0c4,0,5.6,3.9,3.9,6.5c-1,1.5-2.5,2-4.2,2c-4.1,0-8.2,0-12.3,0c-0.9,0-1.5,0-1.5,1.2c0,1.1,0.6,1.3,1.5,1.3
			c7.2,0,14.4,0,21.6,0c0.5,0,1.2-0.3,1.6-0.7c4.6-4.5,9.1-9.1,13.7-13.6c0.8-0.8,1.9-1.4,3-1.7c1.7-0.4,3.4,0.5,4.2,2
			c0.9,1.5,0.7,3.3-0.4,4.7c-0.2,0.3-0.5,0.5-0.7,0.8c-6.1,6.1-12.1,12.1-18.1,18.2c-1.2,1.2-2.5,1.7-4.1,1.7
			C57.1,58.6,50.9,58.6,44.6,58.6z"/>
		<path fill="#DBE0E5" d="M62.1,34.4c-2.8-3.2-6.5-2.8-10.2-2.7c0-0.1,0-0.2,0-0.3c0.4-0.1,0.8-0.2,1.2-0.4c4.5-1.3,6.6-6,4.5-9.9
			c-0.8-1.5-2.1-2.4-3.5-3.1c-1.3-0.6-2.6-1.1-3.9-1.7c-0.6-0.3-1.1-0.6-1.6-0.9c-0.9-0.6-1.4-1.4-1.3-2.6c0.2-1.2,1-1.8,2.1-2.1
			c2-0.5,3.9-0.1,5.8,0.6c0.4,0.1,0.7,0.3,1.2,0.5c0.4-1.2,0.7-2.3,1.1-3.7c-1.4-0.4-2.8-0.8-4.3-1c-1-0.1-1.3-0.4-1.3-1.4
			c0.1-0.7,0-1.5,0-2.3c-1.1,0-2,0-3.2,0c0,0.9-0.1,1.7,0,2.6c0.1,0.9-0.2,1.3-1.1,1.5c-3.7,1-5.6,3.7-5.2,7.2
			c0.2,1.5,0.8,2.8,2,3.7c1.3,0.9,2.7,1.6,4.1,2.3c1.1,0.6,2.2,1,3.2,1.6c1.2,0.7,1.9,1.8,1.5,3.2c-0.3,1.4-1.4,2.1-2.7,2.4
			c-2.1,0.4-4.1,0-6-0.8c-0.5-0.2-0.9-0.4-1.5-0.7c-0.3,1.1-0.7,2.1-0.9,3.2c0,0.2,0.4,0.8,0.7,0.9c1.5,0.5,3.1,1,4.5,1.4
			c-2.6,0-5.4,0-8.1,0c-0.2,0-0.5,0-0.7,0c-2.8,0.6-4.1-1-5.3-3.2C26.9,16.1,34.6,1.6,48.5,0.1c10.2-1.1,19.8,6.7,20.9,17
			C70.1,23.9,67.3,30.6,62.1,34.4z"/>
	</g>
</g>
</svg>
