<?xml version="1.0" encoding="utf-8"?>
<!-- Generator: Adobe Illustrator 18.0.0, SVG Export Plug-In . SVG Version: 6.00 Build 0)  -->
<!DOCTYPE svg PUBLIC "-//W3C//DTD SVG 1.1//EN" "http://www.w3.org/Graphics/SVG/1.1/DTD/svg11.dtd">
<svg version="1.1" id="Layer_1" xmlns="http://www.w3.org/2000/svg" xmlns:xlink="http://www.w3.org/1999/xlink" x="0px" y="0px"
	 viewBox="0 0 91.5 96.2" enable-background="new 0 0 91.5 96.2" xml:space="preserve">
<g>
	
		<path fill="#075C2F" stroke="#075C2F" stroke-width="3.2119" stroke-linecap="round" stroke-linejoin="round" stroke-miterlimit="10" d="
		M89.4,51c-0.8-1.5-2.5-2.5-4.2-2c-1.1,0.3-2.2,0.9-3,1.7c-4.6,4.5-9.1,9.1-13.7,13.6c-0.4,0.4-1,0.7-1.6,0.7c-7.2,0-14.4,0-21.6,0
		c-0.9,0-1.5-0.2-1.5-1.3c0-1.2,0.7-1.2,1.5-1.2c4.1,0,8.2,0,12.3,0c1.7,0,3.2-0.5,4.2-2c1.7-2.6,0.1-6.5-3.9-6.5
		c-10.8,0-21.6,0-32.4,0c-1.5,0-2.8,0.6-3.8,1.7c-5.8,5.9-11.6,11.7-17.5,17.5c-1.1,1.1-1.7,2.4-1.6,4c0,4.2,0,8.5,0,12.7
		c0,2.3,0.9,3.8,2.6,4.5c2,0.8,3.6,0.1,5-1.4c5.2-5.3,10.5-10.5,15.7-15.8c0.6-0.6,1.3-0.9,2.1-0.9c6.3,0,12.7,0,19,0
		c6.3,0,12.5,0,18.8,0c1.7,0,3-0.5,4.1-1.7c6-6.1,12.1-12.1,18.1-18.2c0.2-0.2,0.5-0.5,0.7-0.8C90.1,54.3,90.2,52.5,89.4,51z"/>
	
		<path fill="#075C2F" stroke="#075C2F" stroke-width="3.2119" stroke-linecap="round" stroke-linejoin="round" stroke-miterlimit="10" d="
		M3.1,46.2c0.8,1.5,2.5,2.5,4.2,2c1.1-0.3,2.2-0.9,3-1.7c4.6-4.5,9.1-9.1,13.7-13.6c0.4-0.4,1-0.7,1.6-0.7c7.2,0,14.4,0,21.6,0
		c0.9,0,1.5,0.2,1.5,1.3c0,1.2-0.7,1.2-1.5,1.2c-4.1,0-8.2,0-12.3,0c-1.7,0-3.2,0.5-4.2,2c-1.7,2.6-0.1,6.5,3.9,6.5
		c10.8,0,21.6,0,32.4,0c1.5,0,2.8-0.6,3.8-1.7c5.8-5.9,11.6-11.7,17.5-17.5c1.1-1.1,1.7-2.4,1.6-4c0-4.2,0-8.5,0-12.7
		c0-2.3-0.9-3.8-2.6-4.5c-2-0.8-3.6-0.1-5,1.4C77,9.5,71.7,14.8,66.5,20c-0.6,0.6-1.3,0.9-2.1,0.9c-6.3,0-12.7,0-19,0
		c-6.3,0-12.5,0-18.8,0c-1.7,0-3,0.5-4.1,1.7c-6,6.1-12.1,12.1-18.1,18.2C4,41,3.7,41.3,3.5,41.5C2.4,42.9,2.3,44.7,3.1,46.2z"/>
	<path fill="#DBE0E5" d="M86.8,48.4c-0.8-1.5-2.5-2.5-4.2-2c-1.1,0.3-2.2,0.9-3,1.7C75,52.5,70.5,57.1,66,61.6
		c-0.4,0.4-1,0.7-1.6,0.7c-7.2,0-14.4,0-21.6,0c-0.9,0-1.5-0.2-1.5-1.3c0-1.2,0.7-1.2,1.5-1.2c4.1,0,8.2,0,12.3,0
		c1.7,0,3.2-0.5,4.2-2c1.7-2.6,0.1-6.5-3.9-6.5c-10.8,0-21.6,0-32.4,0c-1.5,0-2.8,0.6-3.8,1.7C13.3,58.9,7.5,64.7,1.6,70.5
		c-1.1,1.1-1.7,2.4-1.6,4c0,4.2,0,8.5,0,12.7c0,2.3,0.9,3.8,2.6,4.5c2,0.8,3.6,0.1,5-1.4c5.2-5.3,10.5-10.5,15.7-15.8
		c0.6-0.6,1.3-0.9,2.1-0.9c6.3,0,12.7,0,19,0c6.3,0,12.5,0,18.8,0c1.7,0,3-0.5,4.1-1.7c6-6.1,12.1-12.1,18.1-18.2
		c0.2-0.2,0.5-0.5,0.7-0.8C87.5,51.7,87.6,49.9,86.8,48.4z"/>
	<path fill="#DBE0E5" d="M0.6,43.7c0.8,1.5,2.5,2.5,4.2,2c1.1-0.3,2.2-0.9,3-1.7c4.6-4.5,9.1-9.1,13.7-13.6c0.4-0.4,1-0.7,1.6-0.7
		c7.2,0,14.4,0,21.6,0c0.9,0,1.5,0.2,1.5,1.3c0,1.2-0.7,1.2-1.5,1.2c-4.1,0-8.2,0-12.3,0c-1.7,0-3.2,0.5-4.2,2
		c-1.7,2.6-0.1,6.5,3.9,6.5c10.8,0,21.6,0,32.4,0c1.5,0,2.8-0.6,3.8-1.7c5.8-5.9,11.6-11.7,17.5-17.5c1.1-1.1,1.7-2.4,1.6-4
		c0-4.2,0-8.5,0-12.7c0-2.3-0.9-3.8-2.6-4.5c-2-0.8-3.6-0.1-5,1.4C74.4,7,69.1,12.2,63.9,17.5c-0.6,0.6-1.3,0.9-2.1,0.9
		c-6.3,0-12.7,0-19,0c-6.3,0-12.5,0-18.8,0c-1.7,0-3,0.5-4.1,1.7c-6,6.1-12.1,12.1-18.1,18.2C1.4,38.5,1.2,38.7,1,39
		C-0.2,40.3-0.3,42.1,0.6,43.7z"/>
</g>
</svg>
